<?xml version="1.0" encoding="UTF-8" standalone="no"?>
<!DOCTYPE svg PUBLIC "-//W3C//DTD SVG 1.1//EN"
 "http://www.w3.org/Graphics/SVG/1.1/DTD/svg11.dtd">
<!-- Generated by graphviz version 2.42.4 (0)
 -->
<!-- Title: G Pages: 1 -->
<svg width="989pt" height="900pt"
 viewBox="0.00 0.00 988.75 899.63" xmlns="http://www.w3.org/2000/svg" xmlns:xlink="http://www.w3.org/1999/xlink">
<g id="graph0" class="graph" transform="scale(1 1) rotate(0) translate(4 895.63)">
<title>G</title>
<polygon fill="white" stroke="transparent" points="-4,4 -4,-895.63 984.75,-895.63 984.75,4 -4,4"/>
<!-- center -->
<g id="node1" class="node">
<title>center</title>
<ellipse fill="#e5f5e0" stroke="#238b45" cx="486.09" cy="-446.15" rx="127.06" ry="18.27"/>
<text text-anchor="middle" x="486.09" y="-442.35" font-family="Arial" font-size="16.00">AI buildout bottlenecks</text>
</g>
<!-- power -->
<g id="node2" class="node">
<title>power</title>
<path fill="#f4f6f8" stroke="#2ca25f" d="M711.49,-546.1C711.49,-546.1 656.49,-546.1 656.49,-546.1 650.49,-546.1 644.49,-540.1 644.49,-534.1 644.49,-534.1 644.49,-522.1 644.49,-522.1 644.49,-516.1 650.49,-510.1 656.49,-510.1 656.49,-510.1 711.49,-510.1 711.49,-510.1 717.49,-510.1 723.49,-516.1 723.49,-522.1 723.49,-522.1 723.49,-534.1 723.49,-534.1 723.49,-540.1 717.49,-546.1 711.49,-546.1"/>
<text text-anchor="middle" x="683.99" y="-525.6" font-family="Arial" font-size="10.00">Power density</text>
</g>
<!-- center&#45;&#45;power -->
<g id="edge1" class="edge">
<title>center&#45;&#45;power</title>
<path fill="none" stroke="#74c476" stroke-width="1.2" d="M528.06,-463.53C562.44,-477.77 610.74,-497.77 644.44,-511.72"/>
</g>
<!-- cooling -->
<g id="node3" class="node">
<title>cooling</title>
<path fill="#f4f6f8" stroke="#2ca25f" d="M609.32,-649.76C609.32,-649.76 579.32,-649.76 579.32,-649.76 573.32,-649.76 567.32,-643.76 567.32,-637.76 567.32,-637.76 567.32,-625.76 567.32,-625.76 567.32,-619.76 573.32,-613.76 579.32,-613.76 579.32,-613.76 609.32,-613.76 609.32,-613.76 615.32,-613.76 621.32,-619.76 621.32,-625.76 621.32,-625.76 621.32,-637.76 621.32,-637.76 621.32,-643.76 615.32,-649.76 609.32,-649.76"/>
<text text-anchor="middle" x="594.32" y="-629.26" font-family="Arial" font-size="10.00">Cooling</text>
</g>
<!-- center&#45;&#45;cooling -->
<g id="edge2" class="edge">
<title>center&#45;&#45;cooling</title>
<path fill="none" stroke="#74c476" stroke-width="1.2" d="M496.87,-464.63C517.66,-500.3 563.11,-578.24 583.75,-613.64"/>
</g>
<!-- passives -->
<g id="node4" class="node">
<title>passives</title>
<path fill="#f4f6f8" stroke="#2ca25f" d="M371.01,-633.96C371.01,-633.96 338.01,-633.96 338.01,-633.96 332.01,-633.96 326.01,-627.96 326.01,-621.96 326.01,-621.96 326.01,-609.96 326.01,-609.96 326.01,-603.96 332.01,-597.96 338.01,-597.96 338.01,-597.96 371.01,-597.96 371.01,-597.96 377.01,-597.96 383.01,-603.96 383.01,-609.96 383.01,-609.96 383.01,-621.96 383.01,-621.96 383.01,-627.96 377.01,-633.96 371.01,-633.96"/>
<text text-anchor="middle" x="354.51" y="-613.46" font-family="Arial" font-size="10.00">Passives</text>
</g>
<!-- center&#45;&#45;passives -->
<g id="edge3" class="edge">
<title>center&#45;&#45;passives</title>
<path fill="none" stroke="#74c476" stroke-width="1.2" d="M471.76,-464.65C446.39,-497.4 393.85,-565.2 368.63,-597.74"/>
</g>
<!-- magnetics -->
<g id="node5" class="node">
<title>magnetics</title>
<path fill="#f4f6f8" stroke="#2ca25f" d="M298.25,-408.73C298.25,-408.73 260.25,-408.73 260.25,-408.73 254.25,-408.73 248.25,-402.73 248.25,-396.73 248.25,-396.73 248.25,-384.73 248.25,-384.73 248.25,-378.73 254.25,-372.73 260.25,-372.73 260.25,-372.73 298.25,-372.73 298.25,-372.73 304.25,-372.73 310.25,-378.73 310.25,-384.73 310.25,-384.73 310.25,-396.73 310.25,-396.73 310.25,-402.73 304.25,-408.73 298.25,-408.73"/>
<text text-anchor="middle" x="279.25" y="-388.23" font-family="Arial" font-size="10.00">Magnetics</text>
</g>
<!-- center&#45;&#45;magnetics -->
<g id="edge4" class="edge">
<title>center&#45;&#45;magnetics</title>
<path fill="none" stroke="#74c476" stroke-width="1.2" d="M425.43,-429.9C387.64,-419.77 340.61,-407.17 310.26,-399.04"/>
</g>
<!-- boards -->
<g id="node6" class="node">
<title>boards</title>
<path fill="#f4f6f8" stroke="#2ca25f" d="M374.14,-312.86C374.14,-312.86 294.14,-312.86 294.14,-312.86 288.14,-312.86 282.14,-306.86 282.14,-300.86 282.14,-300.86 282.14,-288.86 282.14,-288.86 282.14,-282.86 288.14,-276.86 294.14,-276.86 294.14,-276.86 374.14,-276.86 374.14,-276.86 380.14,-276.86 386.14,-282.86 386.14,-288.86 386.14,-288.86 386.14,-300.86 386.14,-300.86 386.14,-306.86 380.14,-312.86 374.14,-312.86"/>
<text text-anchor="middle" x="334.14" y="-292.36" font-family="Arial" font-size="10.00">Boards &amp; packaging</text>
</g>
<!-- center&#45;&#45;boards -->
<g id="edge5" class="edge">
<title>center&#45;&#45;boards</title>
<path fill="none" stroke="#74c476" stroke-width="1.2" d="M467.76,-427.9C438.56,-398.82 381.78,-342.3 352.53,-313.18"/>
</g>
<!-- network -->
<g id="node7" class="node">
<title>network</title>
<path fill="#f4f6f8" stroke="#2ca25f" d="M496.23,-251.89C496.23,-251.89 419.23,-251.89 419.23,-251.89 413.23,-251.89 407.23,-245.89 407.23,-239.89 407.23,-239.89 407.23,-227.89 407.23,-227.89 407.23,-221.89 413.23,-215.89 419.23,-215.89 419.23,-215.89 496.23,-215.89 496.23,-215.89 502.23,-215.89 508.23,-221.89 508.23,-227.89 508.23,-227.89 508.23,-239.89 508.23,-239.89 508.23,-245.89 502.23,-251.89 496.23,-251.89"/>
<text text-anchor="middle" x="457.73" y="-231.39" font-family="Arial" font-size="10.00">Networking / optics</text>
</g>
<!-- center&#45;&#45;network -->
<g id="edge6" class="edge">
<title>center&#45;&#45;network</title>
<path fill="none" stroke="#74c476" stroke-width="1.2" d="M483.63,-427.69C478.25,-387.44 465.53,-292.23 460.17,-252.16"/>
</g>
<!-- integration -->
<g id="node8" class="node">
<title>integration</title>
<path fill="#f4f6f8" stroke="#2ca25f" d="M617.08,-278.78C617.08,-278.78 570.08,-278.78 570.08,-278.78 564.08,-278.78 558.08,-272.78 558.08,-266.78 558.08,-266.78 558.08,-254.78 558.08,-254.78 558.08,-248.78 564.08,-242.78 570.08,-242.78 570.08,-242.78 617.08,-242.78 617.08,-242.78 623.08,-242.78 629.08,-248.78 629.08,-254.78 629.08,-254.78 629.08,-266.78 629.08,-266.78 629.08,-272.78 623.08,-278.78 617.08,-278.78"/>
<text text-anchor="middle" x="593.58" y="-258.28" font-family="Arial" font-size="10.00">ODM / EMS</text>
</g>
<!-- center&#45;&#45;integration -->
<g id="edge7" class="edge">
<title>center&#45;&#45;integration</title>
<path fill="none" stroke="#74c476" stroke-width="1.2" d="M496.79,-427.7C517.45,-392.08 562.59,-314.23 583.08,-278.88"/>
</g>
<!-- grid -->
<g id="node9" class="node">
<title>grid</title>
<path fill="#f4f6f8" stroke="#2ca25f" d="M705.51,-382.21C705.51,-382.21 662.51,-382.21 662.51,-382.21 656.51,-382.21 650.51,-376.21 650.51,-370.21 650.51,-370.21 650.51,-358.21 650.51,-358.21 650.51,-352.21 656.51,-346.21 662.51,-346.21 662.51,-346.21 705.51,-346.21 705.51,-346.21 711.51,-346.21 717.51,-352.21 717.51,-358.21 717.51,-358.21 717.51,-370.21 717.51,-370.21 717.51,-376.21 711.51,-382.21 705.51,-382.21"/>
<text text-anchor="middle" x="684.01" y="-361.71" font-family="Arial" font-size="10.00">Grid / utility</text>
</g>
<!-- center&#45;&#45;grid -->
<g id="edge8" class="edge">
<title>center&#45;&#45;grid</title>
<path fill="none" stroke="#74c476" stroke-width="1.2" d="M528.07,-428.77C564.49,-413.69 616.54,-392.14 650.3,-378.17"/>
</g>
<!-- p1 -->
<g id="node10" class="node">
<title>p1</title>
<path fill="#f4f6f8" stroke="#2ca25f" d="M953.75,-522.55C953.75,-522.55 867.75,-522.55 867.75,-522.55 861.75,-522.55 855.75,-516.55 855.75,-510.55 855.75,-510.55 855.75,-493.55 855.75,-493.55 855.75,-487.55 861.75,-481.55 867.75,-481.55 867.75,-481.55 953.75,-481.55 953.75,-481.55 959.75,-481.55 965.75,-487.55 965.75,-493.55 965.75,-493.55 965.75,-510.55 965.75,-510.55 965.75,-516.55 959.75,-522.55 953.75,-522.55"/>
<text text-anchor="middle" x="910.75" y="-510.55" font-family="Arial" font-size="10.00">Rack power shelves:</text>
<text text-anchor="middle" x="910.75" y="-499.55" font-family="Arial" font-size="10.00">Delta, LITEON, Flex,</text>
<text text-anchor="middle" x="910.75" y="-488.55" font-family="Arial" font-size="10.00">Jabil, Bel Fuse</text>
</g>
<!-- power&#45;&#45;p1 -->
<g id="edge9" class="edge">
<title>power&#45;&#45;p1</title>
<path fill="none" stroke="#74c476" stroke-width="1.2" d="M723.75,-523.53C760.33,-519.33 814.93,-513.06 855.7,-508.38"/>
</g>
<!-- p2 -->
<g id="node11" class="node">
<title>p2</title>
<path fill="#f4f6f8" stroke="#2ca25f" d="M924.32,-630.55C924.32,-630.55 839.32,-630.55 839.32,-630.55 833.32,-630.55 827.32,-624.55 827.32,-618.55 827.32,-618.55 827.32,-601.55 827.32,-601.55 827.32,-595.55 833.32,-589.55 839.32,-589.55 839.32,-589.55 924.32,-589.55 924.32,-589.55 930.32,-589.55 936.32,-595.55 936.32,-601.55 936.32,-601.55 936.32,-618.55 936.32,-618.55 936.32,-624.55 930.32,-630.55 924.32,-630.55"/>
<text text-anchor="middle" x="881.82" y="-618.55" font-family="Arial" font-size="10.00">VRM / POL:</text>
<text text-anchor="middle" x="881.82" y="-607.55" font-family="Arial" font-size="10.00">Vicor, MPWR, AEIS,</text>
<text text-anchor="middle" x="881.82" y="-596.55" font-family="Arial" font-size="10.00">POWI, MPS</text>
</g>
<!-- power&#45;&#45;p2 -->
<g id="edge10" class="edge">
<title>power&#45;&#45;p2</title>
<path fill="none" stroke="#74c476" stroke-width="1.2" d="M723.55,-544.49C754.78,-557.43 798.54,-575.55 832.14,-589.47"/>
</g>
<!-- p3 -->
<g id="node12" class="node">
<title>p3</title>
<path fill="#f4f6f8" stroke="#2ca25f" d="M867.96,-724.87C867.96,-724.87 783.96,-724.87 783.96,-724.87 777.96,-724.87 771.96,-718.87 771.96,-712.87 771.96,-712.87 771.96,-700.87 771.96,-700.87 771.96,-694.87 777.96,-688.87 783.96,-688.87 783.96,-688.87 867.96,-688.87 867.96,-688.87 873.96,-688.87 879.96,-694.87 879.96,-700.87 879.96,-700.87 879.96,-712.87 879.96,-712.87 879.96,-718.87 873.96,-724.87 867.96,-724.87"/>
<text text-anchor="middle" x="825.96" y="-704.37" font-family="Arial" font-size="10.00">48V / 800V transition</text>
</g>
<!-- power&#45;&#45;p3 -->
<g id="edge11" class="edge">
<title>power&#45;&#45;p3</title>
<path fill="none" stroke="#74c476" stroke-width="1.2" d="M698.39,-546.23C725.6,-580.49 784.29,-654.4 811.53,-688.7"/>
</g>
<!-- c1 -->
<g id="node13" class="node">
<title>c1</title>
<path fill="#f4f6f8" stroke="#2ca25f" d="M800.62,-803.65C800.62,-803.65 697.62,-803.65 697.62,-803.65 691.62,-803.65 685.62,-797.65 685.62,-791.65 685.62,-791.65 685.62,-779.65 685.62,-779.65 685.62,-773.65 691.62,-767.65 697.62,-767.65 697.62,-767.65 800.62,-767.65 800.62,-767.65 806.62,-767.65 812.62,-773.65 812.62,-779.65 812.62,-779.65 812.62,-791.65 812.62,-791.65 812.62,-797.65 806.62,-803.65 800.62,-803.65"/>
<text text-anchor="middle" x="749.12" y="-788.65" font-family="Arial" font-size="10.00">Liquid cooling at 150kW+</text>
<text text-anchor="middle" x="749.12" y="-777.65" font-family="Arial" font-size="10.00">rack densities</text>
</g>
<!-- cooling&#45;&#45;c1 -->
<g id="edge12" class="edge">
<title>cooling&#45;&#45;c1</title>
<path fill="none" stroke="#74c476" stroke-width="1.2" d="M612.68,-650.02C642.47,-679.64 701,-737.82 730.77,-767.42"/>
</g>
<!-- c2 -->
<g id="node14" class="node">
<title>c2</title>
<path fill="#f4f6f8" stroke="#2ca25f" d="M701.54,-859.18C701.54,-859.18 610.54,-859.18 610.54,-859.18 604.54,-859.18 598.54,-853.18 598.54,-847.18 598.54,-847.18 598.54,-835.18 598.54,-835.18 598.54,-829.18 604.54,-823.18 610.54,-823.18 610.54,-823.18 701.54,-823.18 701.54,-823.18 707.54,-823.18 713.54,-829.18 713.54,-835.18 713.54,-835.18 713.54,-847.18 713.54,-847.18 713.54,-853.18 707.54,-859.18 701.54,-859.18"/>
<text text-anchor="middle" x="656.04" y="-844.18" font-family="Arial" font-size="10.00">Vertiv, Schneider,</text>
<text text-anchor="middle" x="656.04" y="-833.18" font-family="Arial" font-size="10.00">Eaton, Modine, Carrier</text>
</g>
<!-- cooling&#45;&#45;c2 -->
<g id="edge13" class="edge">
<title>cooling&#45;&#45;c2</title>
<path fill="none" stroke="#74c476" stroke-width="1.2" d="M599.69,-649.98C611.39,-689.69 639.07,-783.62 650.73,-823.15"/>
</g>
<!-- pa1 -->
<g id="node15" class="node">
<title>pa1</title>
<path fill="#f4f6f8" stroke="#2ca25f" d="M578.46,-889.28C578.46,-889.28 509.46,-889.28 509.46,-889.28 503.46,-889.28 497.46,-883.28 497.46,-877.28 497.46,-877.28 497.46,-865.28 497.46,-865.28 497.46,-859.28 503.46,-853.28 509.46,-853.28 509.46,-853.28 578.46,-853.28 578.46,-853.28 584.46,-853.28 590.46,-859.28 590.46,-865.28 590.46,-865.28 590.46,-877.28 590.46,-877.28 590.46,-883.28 584.46,-889.28 578.46,-889.28"/>
<text text-anchor="middle" x="543.96" y="-874.28" font-family="Arial" font-size="10.00">Polymer tantalum</text>
<text text-anchor="middle" x="543.96" y="-863.28" font-family="Arial" font-size="10.00">(highest score)</text>
</g>
<!-- passives&#45;&#45;pa1 -->
<g id="edge14" class="edge">
<title>passives&#45;&#45;pa1</title>
<path fill="none" stroke="#74c476" stroke-width="1.2" d="M368.14,-634.32C403.09,-681.43 495.64,-806.16 530.46,-853.08"/>
</g>
<!-- pa2 -->
<g id="node16" class="node">
<title>pa2</title>
<path fill="#f4f6f8" stroke="#2ca25f" d="M477.38,-891.63C477.38,-891.63 394.38,-891.63 394.38,-891.63 388.38,-891.63 382.38,-885.63 382.38,-879.63 382.38,-879.63 382.38,-867.63 382.38,-867.63 382.38,-861.63 388.38,-855.63 394.38,-855.63 394.38,-855.63 477.38,-855.63 477.38,-855.63 483.38,-855.63 489.38,-861.63 489.38,-867.63 489.38,-867.63 489.38,-879.63 489.38,-879.63 489.38,-885.63 483.38,-891.63 477.38,-891.63"/>
<text text-anchor="middle" x="435.88" y="-871.13" font-family="Arial" font-size="10.00">Tantalum conformals</text>
</g>
<!-- passives&#45;&#45;pa2 -->
<g id="edge15" class="edge">
<title>passives&#45;&#45;pa2</title>
<path fill="none" stroke="#74c476" stroke-width="1.2" d="M360.24,-634.08C375.17,-681.39 415.23,-808.24 430.16,-855.53"/>
</g>
<!-- pa3 -->
<g id="node17" class="node">
<title>pa3</title>
<path fill="#f4f6f8" stroke="#2ca25f" d="M362.3,-857.16C362.3,-857.16 252.3,-857.16 252.3,-857.16 246.3,-857.16 240.3,-851.16 240.3,-845.16 240.3,-845.16 240.3,-833.16 240.3,-833.16 240.3,-827.16 246.3,-821.16 252.3,-821.16 252.3,-821.16 362.3,-821.16 362.3,-821.16 368.3,-821.16 374.3,-827.16 374.3,-833.16 374.3,-833.16 374.3,-845.16 374.3,-845.16 374.3,-851.16 368.3,-857.16 362.3,-857.16"/>
<text text-anchor="middle" x="307.3" y="-836.66" font-family="Arial" font-size="10.00">Leaded / specialty ceramic</text>
</g>
<!-- passives&#45;&#45;pa3 -->
<g id="edge16" class="edge">
<title>passives&#45;&#45;pa3</title>
<path fill="none" stroke="#74c476" stroke-width="1.2" d="M350.65,-634.23C341.77,-676.18 320.01,-779.05 311.15,-820.95"/>
</g>
<!-- pa4 -->
<g id="node18" class="node">
<title>pa4</title>
<path fill="#f4f6f8" stroke="#2ca25f" d="M256.28,-802.73C256.28,-802.73 182.28,-802.73 182.28,-802.73 176.28,-802.73 170.28,-796.73 170.28,-790.73 170.28,-790.73 170.28,-778.73 170.28,-778.73 170.28,-772.73 176.28,-766.73 182.28,-766.73 182.28,-766.73 256.28,-766.73 256.28,-766.73 262.28,-766.73 268.28,-772.73 268.28,-778.73 268.28,-778.73 268.28,-790.73 268.28,-790.73 268.28,-796.73 262.28,-802.73 256.28,-802.73"/>
<text text-anchor="middle" x="219.28" y="-782.23" font-family="Arial" font-size="10.00">MLCC &gt;1uF / auto</text>
</g>
<!-- passives&#45;&#45;pa4 -->
<g id="edge17" class="edge">
<title>passives&#45;&#45;pa4</title>
<path fill="none" stroke="#74c476" stroke-width="1.2" d="M340.04,-634.02C314.08,-666.42 259.89,-734.06 233.85,-766.55"/>
</g>
<!-- pa5 -->
<g id="node19" class="node">
<title>pa5</title>
<path fill="#f4f6f8" stroke="#2ca25f" d="M189.25,-724.87C189.25,-724.87 103.25,-724.87 103.25,-724.87 97.25,-724.87 91.25,-718.87 91.25,-712.87 91.25,-712.87 91.25,-700.87 91.25,-700.87 91.25,-694.87 97.25,-688.87 103.25,-688.87 103.25,-688.87 189.25,-688.87 189.25,-688.87 195.25,-688.87 201.25,-694.87 201.25,-700.87 201.25,-700.87 201.25,-712.87 201.25,-712.87 201.25,-718.87 195.25,-724.87 189.25,-724.87"/>
<text text-anchor="middle" x="146.25" y="-704.37" font-family="Arial" font-size="10.00">Aluminum electrolytic</text>
</g>
<!-- passives&#45;&#45;pa5 -->
<g id="edge18" class="edge">
<title>passives&#45;&#45;pa5</title>
<path fill="none" stroke="#74c476" stroke-width="1.2" d="M325.99,-628.41C290.23,-644.02 228.66,-670.9 187.7,-688.78"/>
</g>
<!-- pa6 -->
<g id="node20" class="node">
<title>pa6</title>
<path fill="#f4f6f8" stroke="#2ca25f" d="M117.41,-628.05C117.41,-628.05 63.41,-628.05 63.41,-628.05 57.41,-628.05 51.41,-622.05 51.41,-616.05 51.41,-616.05 51.41,-604.05 51.41,-604.05 51.41,-598.05 57.41,-592.05 63.41,-592.05 63.41,-592.05 117.41,-592.05 117.41,-592.05 123.41,-592.05 129.41,-598.05 129.41,-604.05 129.41,-604.05 129.41,-616.05 129.41,-616.05 129.41,-622.05 123.41,-628.05 117.41,-628.05"/>
<text text-anchor="middle" x="90.41" y="-607.55" font-family="Arial" font-size="10.00">Current sense</text>
</g>
<!-- passives&#45;&#45;pa6 -->
<g id="edge19" class="edge">
<title>passives&#45;&#45;pa6</title>
<path fill="none" stroke="#74c476" stroke-width="1.2" d="M326,-615.32C278.52,-614.26 183.17,-612.13 129.47,-610.92"/>
</g>
<!-- pa7 -->
<g id="node21" class="node">
<title>pa7</title>
<path fill="#f4f6f8" stroke="#2ca25f" d="M110.5,-528.05C110.5,-528.05 12.5,-528.05 12.5,-528.05 6.5,-528.05 0.5,-522.05 0.5,-516.05 0.5,-516.05 0.5,-488.05 0.5,-488.05 0.5,-482.05 6.5,-476.05 12.5,-476.05 12.5,-476.05 110.5,-476.05 110.5,-476.05 116.5,-476.05 122.5,-482.05 122.5,-488.05 122.5,-488.05 122.5,-516.05 122.5,-516.05 122.5,-522.05 116.5,-528.05 110.5,-528.05"/>
<text text-anchor="middle" x="61.5" y="-516.05" font-family="Arial" font-size="10.00">Murata, TDK, Yageo,</text>
<text text-anchor="middle" x="61.5" y="-505.05" font-family="Arial" font-size="10.00">Walsin, Samsung EM,</text>
<text text-anchor="middle" x="61.5" y="-494.05" font-family="Arial" font-size="10.00">NCC, Nichicon, Vishay,</text>
<text text-anchor="middle" x="61.5" y="-483.05" font-family="Arial" font-size="10.00">Panasonic, Kyocera</text>
</g>
<!-- passives&#45;&#45;pa7 -->
<g id="edge20" class="edge">
<title>passives&#45;&#45;pa7</title>
<path fill="none" stroke="#74c476" stroke-width="1.2" d="M325.89,-604.83C279.01,-586.61 184.88,-550.02 122.52,-525.78"/>
</g>
<!-- m1 -->
<g id="node22" class="node">
<title>m1</title>
<path fill="#f4f6f8" stroke="#2ca25f" d="M111,-408.25C111,-408.25 12,-408.25 12,-408.25 6,-408.25 0,-402.25 0,-396.25 0,-396.25 0,-384.25 0,-384.25 0,-378.25 6,-372.25 12,-372.25 12,-372.25 111,-372.25 111,-372.25 117,-372.25 123,-378.25 123,-384.25 123,-384.25 123,-396.25 123,-396.25 123,-402.25 117,-408.25 111,-408.25"/>
<text text-anchor="middle" x="61.5" y="-387.75" font-family="Arial" font-size="10.00">Inductors / TLVR / filters</text>
</g>
<!-- magnetics&#45;&#45;m1 -->
<g id="edge21" class="edge">
<title>magnetics&#45;&#45;m1</title>
<path fill="none" stroke="#74c476" stroke-width="1.2" d="M248.05,-390.66C215.59,-390.59 163.92,-390.47 123.18,-390.38"/>
</g>
<!-- m2 -->
<g id="node23" class="node">
<title>m2</title>
<path fill="#f4f6f8" stroke="#2ca25f" d="M135.44,-302.75C135.44,-302.75 45.44,-302.75 45.44,-302.75 39.44,-302.75 33.44,-296.75 33.44,-290.75 33.44,-290.75 33.44,-273.75 33.44,-273.75 33.44,-267.75 39.44,-261.75 45.44,-261.75 45.44,-261.75 135.44,-261.75 135.44,-261.75 141.44,-261.75 147.44,-267.75 147.44,-273.75 147.44,-273.75 147.44,-290.75 147.44,-290.75 147.44,-296.75 141.44,-302.75 135.44,-302.75"/>
<text text-anchor="middle" x="90.44" y="-290.75" font-family="Arial" font-size="10.00">Sumida, TDK, Murata,</text>
<text text-anchor="middle" x="90.44" y="-279.75" font-family="Arial" font-size="10.00">Taiyo Yuden, Delevan,</text>
<text text-anchor="middle" x="90.44" y="-268.75" font-family="Arial" font-size="10.00">Pulse / Bel</text>
</g>
<!-- magnetics&#45;&#45;m2 -->
<g id="edge22" class="edge">
<title>magnetics&#45;&#45;m2</title>
<path fill="none" stroke="#74c476" stroke-width="1.2" d="M248.07,-372.81C214.55,-353.56 161.36,-323 126.17,-302.78"/>
</g>
<!-- b1 -->
<g id="node24" class="node">
<title>b1</title>
<path fill="#f4f6f8" stroke="#2ca25f" d="M187.82,-211.43C187.82,-211.43 104.82,-211.43 104.82,-211.43 98.82,-211.43 92.82,-205.43 92.82,-199.43 92.82,-199.43 92.82,-171.43 92.82,-171.43 92.82,-165.43 98.82,-159.43 104.82,-159.43 104.82,-159.43 187.82,-159.43 187.82,-159.43 193.82,-159.43 199.82,-165.43 199.82,-171.43 199.82,-171.43 199.82,-199.43 199.82,-199.43 199.82,-205.43 193.82,-211.43 187.82,-211.43"/>
<text text-anchor="middle" x="146.32" y="-199.43" font-family="Arial" font-size="10.00">Substrates / PCBs:</text>
<text text-anchor="middle" x="146.32" y="-188.43" font-family="Arial" font-size="10.00">Ibiden, Unimicron,</text>
<text text-anchor="middle" x="146.32" y="-177.43" font-family="Arial" font-size="10.00">Zhen Ding, Compeq,</text>
<text text-anchor="middle" x="146.32" y="-166.43" font-family="Arial" font-size="10.00">Tripod, TTM</text>
</g>
<!-- boards&#45;&#45;b1 -->
<g id="edge23" class="edge">
<title>boards&#45;&#45;b1</title>
<path fill="none" stroke="#74c476" stroke-width="1.2" d="M303.12,-276.79C272.59,-259.01 225.66,-231.66 191.09,-211.51"/>
</g>
<!-- b2 -->
<g id="node25" class="node">
<title>b2</title>
<path fill="#f4f6f8" stroke="#2ca25f" d="M249.34,-125.18C249.34,-125.18 195.34,-125.18 195.34,-125.18 189.34,-125.18 183.34,-119.18 183.34,-113.18 183.34,-113.18 183.34,-101.18 183.34,-101.18 183.34,-95.18 189.34,-89.18 195.34,-89.18 195.34,-89.18 249.34,-89.18 249.34,-89.18 255.34,-89.18 261.34,-95.18 261.34,-101.18 261.34,-101.18 261.34,-113.18 261.34,-113.18 261.34,-119.18 255.34,-125.18 249.34,-125.18"/>
<text text-anchor="middle" x="222.34" y="-110.18" font-family="Arial" font-size="10.00">Connectors:</text>
<text text-anchor="middle" x="222.34" y="-99.18" font-family="Arial" font-size="10.00">Amphenol, TE</text>
</g>
<!-- boards&#45;&#45;b2 -->
<g id="edge24" class="edge">
<title>boards&#45;&#45;b2</title>
<path fill="none" stroke="#74c476" stroke-width="1.2" d="M323.21,-276.53C301.78,-240.55 254.47,-161.13 233.14,-125.32"/>
</g>
<!-- n1 -->
<g id="node26" class="node">
<title>n1</title>
<path fill="#f4f6f8" stroke="#2ca25f" d="M356.53,-73.6C356.53,-73.6 264.53,-73.6 264.53,-73.6 258.53,-73.6 252.53,-67.6 252.53,-61.6 252.53,-61.6 252.53,-44.6 252.53,-44.6 252.53,-38.6 258.53,-32.6 264.53,-32.6 264.53,-32.6 356.53,-32.6 356.53,-32.6 362.53,-32.6 368.53,-38.6 368.53,-44.6 368.53,-44.6 368.53,-61.6 368.53,-61.6 368.53,-67.6 362.53,-73.6 356.53,-73.6"/>
<text text-anchor="middle" x="310.53" y="-61.6" font-family="Arial" font-size="10.00">800G / 1.6T switching:</text>
<text text-anchor="middle" x="310.53" y="-50.6" font-family="Arial" font-size="10.00">Celestica, Arista,</text>
<text text-anchor="middle" x="310.53" y="-39.6" font-family="Arial" font-size="10.00">Broadcom, Marvell</text>
</g>
<!-- network&#45;&#45;n1 -->
<g id="edge25" class="edge">
<title>network&#45;&#45;n1</title>
<path fill="none" stroke="#74c476" stroke-width="1.2" d="M442.81,-215.56C415.18,-181.63 356.25,-109.25 327.29,-73.69"/>
</g>
<!-- n2 -->
<g id="node27" class="node">
<title>n2</title>
<path fill="#f4f6f8" stroke="#2ca25f" d="M475.54,-41.01C475.54,-41.01 388.54,-41.01 388.54,-41.01 382.54,-41.01 376.54,-35.01 376.54,-29.01 376.54,-29.01 376.54,-12.01 376.54,-12.01 376.54,-6.01 382.54,-0.01 388.54,-0.01 388.54,-0.01 475.54,-0.01 475.54,-0.01 481.54,-0.01 487.54,-6.01 487.54,-12.01 487.54,-12.01 487.54,-29.01 487.54,-29.01 487.54,-35.01 481.54,-41.01 475.54,-41.01"/>
<text text-anchor="middle" x="432.04" y="-29.01" font-family="Arial" font-size="10.00">Optics:</text>
<text text-anchor="middle" x="432.04" y="-18.01" font-family="Arial" font-size="10.00">Coherent, Lumentum,</text>
<text text-anchor="middle" x="432.04" y="-7.01" font-family="Arial" font-size="10.00">Fabrinet, Ciena</text>
</g>
<!-- network&#45;&#45;n2 -->
<g id="edge26" class="edge">
<title>network&#45;&#45;n2</title>
<path fill="none" stroke="#74c476" stroke-width="1.2" d="M455.54,-215.7C450.78,-176.19 439.54,-82.76 434.52,-41.14"/>
</g>
<!-- n3 -->
<g id="node28" class="node">
<title>n3</title>
<path fill="#f4f6f8" stroke="#2ca25f" d="M584.63,-41C584.63,-41 507.63,-41 507.63,-41 501.63,-41 495.63,-35 495.63,-29 495.63,-29 495.63,-12 495.63,-12 495.63,-6 501.63,0 507.63,0 507.63,0 584.63,0 584.63,0 590.63,0 596.63,-6 596.63,-12 596.63,-12 596.63,-29 596.63,-29 596.63,-35 590.63,-41 584.63,-41"/>
<text text-anchor="middle" x="546.13" y="-29" font-family="Arial" font-size="10.00">Accelerator fabrics:</text>
<text text-anchor="middle" x="546.13" y="-18" font-family="Arial" font-size="10.00">NVIDIA, AMD,</text>
<text text-anchor="middle" x="546.13" y="-7" font-family="Arial" font-size="10.00">Astera, Micron</text>
</g>
<!-- network&#45;&#45;n3 -->
<g id="edge27" class="edge">
<title>network&#45;&#45;n3</title>
<path fill="none" stroke="#74c476" stroke-width="1.2" d="M465.27,-215.69C481.64,-176.19 520.34,-82.76 537.58,-41.13"/>
</g>
<!-- i1 -->
<g id="node29" class="node">
<title>i1</title>
<path fill="#f4f6f8" stroke="#2ca25f" d="M689.66,-77.21C689.66,-77.21 616.66,-77.21 616.66,-77.21 610.66,-77.21 604.66,-71.21 604.66,-65.21 604.66,-65.21 604.66,-37.21 604.66,-37.21 604.66,-31.21 610.66,-25.21 616.66,-25.21 616.66,-25.21 689.66,-25.21 689.66,-25.21 695.66,-25.21 701.66,-31.21 701.66,-37.21 701.66,-37.21 701.66,-65.21 701.66,-65.21 701.66,-71.21 695.66,-77.21 689.66,-77.21"/>
<text text-anchor="middle" x="653.16" y="-65.21" font-family="Arial" font-size="10.00">Wiwynn, Quanta,</text>
<text text-anchor="middle" x="653.16" y="-54.21" font-family="Arial" font-size="10.00">Wistron, Foxconn,</text>
<text text-anchor="middle" x="653.16" y="-43.21" font-family="Arial" font-size="10.00">Celestica, Flex,</text>
<text text-anchor="middle" x="653.16" y="-32.21" font-family="Arial" font-size="10.00">Sanmina, Jabil</text>
</g>
<!-- integration&#45;&#45;i1 -->
<g id="edge28" class="edge">
<title>integration&#45;&#45;i1</title>
<path fill="none" stroke="#74c476" stroke-width="1.2" d="M598.76,-242.55C609.35,-205.3 633.49,-120.38 645.74,-77.3"/>
</g>
<!-- i2 -->
<g id="node30" class="node">
<title>i2</title>
<path fill="#f4f6f8" stroke="#2ca25f" d="M794.66,-124.75C794.66,-124.75 701.66,-124.75 701.66,-124.75 695.66,-124.75 689.66,-118.75 689.66,-112.75 689.66,-112.75 689.66,-100.75 689.66,-100.75 689.66,-94.75 695.66,-88.75 701.66,-88.75 701.66,-88.75 794.66,-88.75 794.66,-88.75 800.66,-88.75 806.66,-94.75 806.66,-100.75 806.66,-100.75 806.66,-112.75 806.66,-112.75 806.66,-118.75 800.66,-124.75 794.66,-124.75"/>
<text text-anchor="middle" x="748.16" y="-109.75" font-family="Arial" font-size="10.00">Rubin / Helios / OCP</text>
<text text-anchor="middle" x="748.16" y="-98.75" font-family="Arial" font-size="10.00">are near&#45;term catalysts</text>
</g>
<!-- integration&#45;&#45;i2 -->
<g id="edge29" class="edge">
<title>integration&#45;&#45;i2</title>
<path fill="none" stroke="#74c476" stroke-width="1.2" d="M611.92,-242.5C641.67,-212.86 700.11,-154.63 729.85,-125"/>
</g>
<!-- g1 -->
<g id="node31" class="node">
<title>g1</title>
<path fill="#f4f6f8" stroke="#2ca25f" d="M881.81,-203.53C881.81,-203.53 770.81,-203.53 770.81,-203.53 764.81,-203.53 758.81,-197.53 758.81,-191.53 758.81,-191.53 758.81,-179.53 758.81,-179.53 758.81,-173.53 764.81,-167.53 770.81,-167.53 770.81,-167.53 881.81,-167.53 881.81,-167.53 887.81,-167.53 893.81,-173.53 893.81,-179.53 893.81,-179.53 893.81,-191.53 893.81,-191.53 893.81,-197.53 887.81,-203.53 881.81,-203.53"/>
<text text-anchor="middle" x="826.31" y="-188.53" font-family="Arial" font-size="10.00">Switchgear / transformers /</text>
<text text-anchor="middle" x="826.31" y="-177.53" font-family="Arial" font-size="10.00">busway / HV cable</text>
</g>
<!-- grid&#45;&#45;g1 -->
<g id="edge30" class="edge">
<title>grid&#45;&#45;g1</title>
<path fill="none" stroke="#74c476" stroke-width="1.2" d="M698.43,-346.09C725.71,-311.85 784.54,-237.98 811.84,-203.7"/>
</g>
<!-- g2 -->
<g id="node32" class="node">
<title>g2</title>
<path fill="#f4f6f8" stroke="#2ca25f" d="M933.82,-308.25C933.82,-308.25 829.82,-308.25 829.82,-308.25 823.82,-308.25 817.82,-302.25 817.82,-296.25 817.82,-296.25 817.82,-268.25 817.82,-268.25 817.82,-262.25 823.82,-256.25 829.82,-256.25 829.82,-256.25 933.82,-256.25 933.82,-256.25 939.82,-256.25 945.82,-262.25 945.82,-268.25 945.82,-268.25 945.82,-296.25 945.82,-296.25 945.82,-302.25 939.82,-308.25 933.82,-308.25"/>
<text text-anchor="middle" x="881.82" y="-296.25" font-family="Arial" font-size="10.00">ABB, Siemens Energy,</text>
<text text-anchor="middle" x="881.82" y="-285.25" font-family="Arial" font-size="10.00">LS Electric, HD Hyundai,</text>
<text text-anchor="middle" x="881.82" y="-274.25" font-family="Arial" font-size="10.00">Hyosung, Legrand,</text>
<text text-anchor="middle" x="881.82" y="-263.25" font-family="Arial" font-size="10.00">NKT, Nexans, Prysmian</text>
</g>
<!-- grid&#45;&#45;g2 -->
<g id="edge31" class="edge">
<title>grid&#45;&#45;g2</title>
<path fill="none" stroke="#74c476" stroke-width="1.2" d="M717.56,-350.31C745.23,-338.84 785.25,-322.26 818.85,-308.34"/>
</g>
<!-- g3 -->
<g id="node33" class="node">
<title>g3</title>
<path fill="#f4f6f8" stroke="#2ca25f" d="M968.75,-408.25C968.75,-408.25 852.75,-408.25 852.75,-408.25 846.75,-408.25 840.75,-402.25 840.75,-396.25 840.75,-396.25 840.75,-384.25 840.75,-384.25 840.75,-378.25 846.75,-372.25 852.75,-372.25 852.75,-372.25 968.75,-372.25 968.75,-372.25 974.75,-372.25 980.75,-378.25 980.75,-384.25 980.75,-384.25 980.75,-396.25 980.75,-396.25 980.75,-402.25 974.75,-408.25 968.75,-408.25"/>
<text text-anchor="middle" x="910.75" y="-393.25" font-family="Arial" font-size="10.00">Power availability now binds</text>
<text text-anchor="middle" x="910.75" y="-382.25" font-family="Arial" font-size="10.00">AI buildout more than chips</text>
</g>
<!-- grid&#45;&#45;g3 -->
<g id="edge32" class="edge">
<title>grid&#45;&#45;g3</title>
<path fill="none" stroke="#74c476" stroke-width="1.2" d="M717.95,-368.11C750.2,-371.81 799.67,-377.49 840.43,-382.17"/>
</g>
</g>
</svg>
