<?xml version="1.0" encoding="UTF-8" standalone="no"?>
<!DOCTYPE svg PUBLIC "-//W3C//DTD SVG 1.1//EN"
 "http://www.w3.org/Graphics/SVG/1.1/DTD/svg11.dtd">
<!-- Generated by graphviz version 2.42.4 (0)
 -->
<!-- Title: G Pages: 1 -->
<svg width="1665pt" height="347pt"
 viewBox="0.00 0.00 1665.00 347.00" xmlns="http://www.w3.org/2000/svg" xmlns:xlink="http://www.w3.org/1999/xlink">
<g id="graph0" class="graph" transform="scale(1 1) rotate(0) translate(4 343)">
<title>G</title>
<polygon fill="white" stroke="transparent" points="-4,4 -4,-343 1661,-343 1661,4 -4,4"/>
<g id="clust1" class="cluster">
<title>cluster0</title>
<path fill="none" stroke="#cfd8dc" d="M20,-8C20,-8 762,-8 762,-8 768,-8 774,-14 774,-20 774,-20 774,-87 774,-87 774,-93 768,-99 762,-99 762,-99 20,-99 20,-99 14,-99 8,-93 8,-87 8,-87 8,-20 8,-20 8,-14 14,-8 20,-8"/>
<text text-anchor="middle" x="391" y="-83.8" font-family="Arial" font-size="14.00">1. Grid and facility power</text>
</g>
<g id="clust2" class="cluster">
<title>cluster1</title>
<path fill="none" stroke="#cfd8dc" d="M597,-250C597,-250 1015.5,-250 1015.5,-250 1021.5,-250 1027.5,-256 1027.5,-262 1027.5,-262 1027.5,-319 1027.5,-319 1027.5,-325 1021.5,-331 1015.5,-331 1015.5,-331 597,-331 597,-331 591,-331 585,-325 585,-319 585,-319 585,-262 585,-262 585,-256 591,-250 597,-250"/>
<text text-anchor="middle" x="806.25" y="-315.8" font-family="Arial" font-size="14.00">2. Rack power conversion</text>
</g>
<g id="clust3" class="cluster">
<title>cluster2</title>
<path fill="none" stroke="#cfd8dc" d="M600,-107C600,-107 783,-107 783,-107 789,-107 795,-113 795,-119 795,-119 795,-230 795,-230 795,-236 789,-242 783,-242 783,-242 600,-242 600,-242 594,-242 588,-236 588,-230 588,-230 588,-119 588,-119 588,-113 594,-107 600,-107"/>
<text text-anchor="middle" x="691.5" y="-226.8" font-family="Arial" font-size="14.00">3. Tight passive bottlenecks</text>
</g>
<g id="clust4" class="cluster">
<title>cluster3</title>
<path fill="none" stroke="#cfd8dc" d="M837,-140C837,-140 1060,-140 1060,-140 1066,-140 1072,-146 1072,-152 1072,-152 1072,-219 1072,-219 1072,-225 1066,-231 1060,-231 1060,-231 837,-231 837,-231 831,-231 825,-225 825,-219 825,-219 825,-152 825,-152 825,-146 831,-140 837,-140"/>
<text text-anchor="middle" x="948.5" y="-215.8" font-family="Arial" font-size="14.00">4. Boards, packaging and interconnect</text>
</g>
<g id="clust5" class="cluster">
<title>cluster4</title>
<path fill="none" stroke="#cfd8dc" d="M1111,-204C1111,-204 1461,-204 1461,-204 1467,-204 1473,-210 1473,-216 1473,-216 1473,-283 1473,-283 1473,-289 1467,-295 1461,-295 1461,-295 1111,-295 1111,-295 1105,-295 1099,-289 1099,-283 1099,-283 1099,-216 1099,-216 1099,-210 1105,-204 1111,-204"/>
<text text-anchor="middle" x="1286" y="-279.8" font-family="Arial" font-size="14.00">5. Racks, servers and switching</text>
</g>
<g id="clust6" class="cluster">
<title>cluster5</title>
<path fill="none" stroke="#cfd8dc" d="M1512,-204C1512,-204 1637,-204 1637,-204 1643,-204 1649,-210 1649,-216 1649,-216 1649,-283 1649,-283 1649,-289 1643,-295 1637,-295 1637,-295 1512,-295 1512,-295 1506,-295 1500,-289 1500,-283 1500,-283 1500,-216 1500,-216 1500,-210 1506,-204 1512,-204"/>
<text text-anchor="middle" x="1574.5" y="-279.8" font-family="Arial" font-size="14.00">6. End demand</text>
</g>
<!-- grid -->
<g id="node1" class="node">
<title>grid</title>
<path fill="#f4f6f8" stroke="#4472c4" d="M151,-60C151,-60 28,-60 28,-60 22,-60 16,-54 16,-48 16,-48 16,-36 16,-36 16,-30 22,-24 28,-24 28,-24 151,-24 151,-24 157,-24 163,-30 163,-36 163,-36 163,-48 163,-48 163,-54 157,-60 151,-60"/>
<text text-anchor="middle" x="89.5" y="-45" font-family="Arial" font-size="10.00">Utility grid / on&#45;site generation</text>
<text text-anchor="middle" x="89.5" y="-34" font-family="Arial" font-size="10.00">(BE, CMI, CAT)</text>
</g>
<!-- cable -->
<g id="node2" class="node">
<title>cable</title>
<path fill="#f4f6f8" stroke="#4472c4" d="M323,-62.5C323,-62.5 218,-62.5 218,-62.5 212,-62.5 206,-56.5 206,-50.5 206,-50.5 206,-33.5 206,-33.5 206,-27.5 212,-21.5 218,-21.5 218,-21.5 323,-21.5 323,-21.5 329,-21.5 335,-27.5 335,-33.5 335,-33.5 335,-50.5 335,-50.5 335,-56.5 329,-62.5 323,-62.5"/>
<text text-anchor="middle" x="270.5" y="-50.5" font-family="Arial" font-size="10.00">HV cables / feeders</text>
<text text-anchor="middle" x="270.5" y="-39.5" font-family="Arial" font-size="10.00">(NKT, Prysmian, Nexans,</text>
<text text-anchor="middle" x="270.5" y="-28.5" font-family="Arial" font-size="10.00">Sumitomo Electric)</text>
</g>
<!-- grid&#45;&gt;cable -->
<g id="edge1" class="edge">
<title>grid&#45;&gt;cable</title>
<path fill="none" stroke="#6c757d" stroke-width="1.2" d="M163.05,-42C174.77,-42 186.88,-42 198.56,-42"/>
<polygon fill="#6c757d" stroke="#6c757d" stroke-width="1.2" points="198.77,-44.45 205.77,-42 198.77,-39.55 198.77,-44.45"/>
</g>
<!-- switchgear -->
<g id="node3" class="node">
<title>switchgear</title>
<path fill="#f4f6f8" stroke="#4472c4" d="M538,-68C538,-68 390,-68 390,-68 384,-68 378,-62 378,-56 378,-56 378,-28 378,-28 378,-22 384,-16 390,-16 390,-16 538,-16 538,-16 544,-16 550,-22 550,-28 550,-28 550,-56 550,-56 550,-62 544,-68 538,-68"/>
<text text-anchor="middle" x="464" y="-56" font-family="Arial" font-size="10.00">Switchgear / transformers / busway</text>
<text text-anchor="middle" x="464" y="-45" font-family="Arial" font-size="10.00">(ETN, SU, ABB, Siemens Energy,</text>
<text text-anchor="middle" x="464" y="-34" font-family="Arial" font-size="10.00">LS Electric, HD Hyundai Electric,</text>
<text text-anchor="middle" x="464" y="-23" font-family="Arial" font-size="10.00">Hyosung, HUBB, POWL, Legrand)</text>
</g>
<!-- cable&#45;&gt;switchgear -->
<g id="edge2" class="edge">
<title>cable&#45;&gt;switchgear</title>
<path fill="none" stroke="#6c757d" stroke-width="1.2" d="M335,-42C346.47,-42 358.63,-42 370.73,-42"/>
<polygon fill="#6c757d" stroke="#6c757d" stroke-width="1.2" points="370.83,-44.45 377.83,-42 370.83,-39.55 370.83,-44.45"/>
</g>
<!-- cooling -->
<g id="node4" class="node">
<title>cooling</title>
<path fill="#f4f6f8" stroke="#4472c4" d="M754,-64.5C754,-64.5 629,-64.5 629,-64.5 623,-64.5 617,-58.5 617,-52.5 617,-52.5 617,-35.5 617,-35.5 617,-29.5 623,-23.5 629,-23.5 629,-23.5 754,-23.5 754,-23.5 760,-23.5 766,-29.5 766,-35.5 766,-35.5 766,-52.5 766,-52.5 766,-58.5 760,-64.5 754,-64.5"/>
<text text-anchor="middle" x="691.5" y="-52.5" font-family="Arial" font-size="10.00">Facility cooling / power quality</text>
<text text-anchor="middle" x="691.5" y="-41.5" font-family="Arial" font-size="10.00">(VRT, MOD, CARR, Eaton,</text>
<text text-anchor="middle" x="691.5" y="-30.5" font-family="Arial" font-size="10.00">Schneider, Vertiv)</text>
</g>
<!-- switchgear&#45;&gt;cooling -->
<g id="edge9" class="edge">
<title>switchgear&#45;&gt;cooling</title>
<path fill="none" stroke="#6c757d" stroke-width="1.2" d="M550.25,-42.76C569.8,-42.93 590.53,-43.11 609.87,-43.28"/>
<polygon fill="#6c757d" stroke="#6c757d" stroke-width="1.2" points="609.91,-45.74 616.94,-43.35 609.96,-40.84 609.91,-45.74"/>
</g>
<!-- rackpower -->
<g id="node5" class="node">
<title>rackpower</title>
<path fill="#f4f6f8" stroke="#4472c4" d="M778,-299.5C778,-299.5 605,-299.5 605,-299.5 599,-299.5 593,-293.5 593,-287.5 593,-287.5 593,-270.5 593,-270.5 593,-264.5 599,-258.5 605,-258.5 605,-258.5 778,-258.5 778,-258.5 784,-258.5 790,-264.5 790,-270.5 790,-270.5 790,-287.5 790,-287.5 790,-293.5 784,-299.5 778,-299.5"/>
<text text-anchor="middle" x="691.5" y="-287.5" font-family="Arial" font-size="10.00">Rack power shelves / PSUs / 48V buses</text>
<text text-anchor="middle" x="691.5" y="-276.5" font-family="Arial" font-size="10.00">(Delta, Flex, Jabil/Hanley,</text>
<text text-anchor="middle" x="691.5" y="-265.5" font-family="Arial" font-size="10.00">LITEON, AcBel, Bel Fuse)</text>
</g>
<!-- switchgear&#45;&gt;rackpower -->
<g id="edge3" class="edge">
<title>switchgear&#45;&gt;rackpower</title>
<path fill="none" stroke="#6c757d" stroke-width="1.2" d="M480.2,-68.09C512.49,-123.52 585,-248 585,-248 585,-248 597.55,-251.69 613.99,-256.52"/>
<polygon fill="#6c757d" stroke="#6c757d" stroke-width="1.2" points="613.31,-258.87 620.72,-258.5 614.69,-254.17 613.31,-258.87"/>
</g>
<!-- odm -->
<g id="node9" class="node">
<title>odm</title>
<path fill="#f4f6f8" stroke="#4472c4" d="M1453,-264C1453,-264 1311,-264 1311,-264 1305,-264 1299,-258 1299,-252 1299,-252 1299,-224 1299,-224 1299,-218 1305,-212 1311,-212 1311,-212 1453,-212 1453,-212 1459,-212 1465,-218 1465,-224 1465,-224 1465,-252 1465,-252 1465,-258 1459,-264 1453,-264"/>
<text text-anchor="middle" x="1382" y="-252" font-family="Arial" font-size="10.00">ODMs / EMS / rack integration</text>
<text text-anchor="middle" x="1382" y="-241" font-family="Arial" font-size="10.00">(Wiwynn, Quanta/QCT, Wistron,</text>
<text text-anchor="middle" x="1382" y="-230" font-family="Arial" font-size="10.00">Foxconn, Celestica, Flex,</text>
<text text-anchor="middle" x="1382" y="-219" font-family="Arial" font-size="10.00">Sanmina, Jabil, SMCI, Dell, HPE)</text>
</g>
<!-- cooling&#45;&gt;odm -->
<g id="edge10" class="edge">
<title>cooling&#45;&gt;odm</title>
<path fill="none" stroke="#6c757d" stroke-width="1.2" d="M766.12,-61.46C876.48,-87.63 1072,-134 1072,-134 1072,-134 1256,-181 1256,-181 1256,-181 1286.3,-194.82 1317.06,-208.84"/>
<polygon fill="#6c757d" stroke="#6c757d" stroke-width="1.2" points="1316.24,-211.16 1323.62,-211.84 1318.27,-206.7 1316.24,-211.16"/>
</g>
<!-- vrm -->
<g id="node6" class="node">
<title>vrm</title>
<path fill="#f4f6f8" stroke="#4472c4" d="M1007.5,-299.5C1007.5,-299.5 889.5,-299.5 889.5,-299.5 883.5,-299.5 877.5,-293.5 877.5,-287.5 877.5,-287.5 877.5,-270.5 877.5,-270.5 877.5,-264.5 883.5,-258.5 889.5,-258.5 889.5,-258.5 1007.5,-258.5 1007.5,-258.5 1013.5,-258.5 1019.5,-264.5 1019.5,-270.5 1019.5,-270.5 1019.5,-287.5 1019.5,-287.5 1019.5,-293.5 1013.5,-299.5 1007.5,-299.5"/>
<text text-anchor="middle" x="948.5" y="-287.5" font-family="Arial" font-size="10.00">VRM / vertical power / POL</text>
<text text-anchor="middle" x="948.5" y="-276.5" font-family="Arial" font-size="10.00">(VICR, MPWR, AEIS, MPS,</text>
<text text-anchor="middle" x="948.5" y="-265.5" font-family="Arial" font-size="10.00">POWI, NVTS, ON, MCHP)</text>
</g>
<!-- rackpower&#45;&gt;vrm -->
<g id="edge4" class="edge">
<title>rackpower&#45;&gt;vrm</title>
<path fill="none" stroke="#6c757d" stroke-width="1.2" d="M790.36,-279C816.81,-279 845.05,-279 870.2,-279"/>
<polygon fill="#6c757d" stroke="#6c757d" stroke-width="1.2" points="870.21,-281.45 877.21,-279 870.21,-276.55 870.21,-281.45"/>
</g>
<!-- rackpower&#45;&gt;odm -->
<g id="edge11" class="edge">
<title>rackpower&#45;&gt;odm</title>
<path fill="none" stroke="#6c757d" stroke-width="1.2" d="M774.91,-299.52C801.85,-306.23 825,-312 825,-312 825,-312 1072,-312 1072,-312 1072,-312 1256,-277 1256,-277 1256,-277 1271.69,-272.11 1291.94,-265.79"/>
<polygon fill="#6c757d" stroke="#6c757d" stroke-width="1.2" points="1292.72,-268.11 1298.67,-263.69 1291.26,-263.43 1292.72,-268.11"/>
</g>
<!-- passives -->
<g id="node7" class="node">
<title>passives</title>
<path fill="#f4f6f8" stroke="#4472c4" d="M775,-211C775,-211 608,-211 608,-211 602,-211 596,-205 596,-199 596,-199 596,-127 596,-127 596,-121 602,-115 608,-115 608,-115 775,-115 775,-115 781,-115 787,-121 787,-127 787,-127 787,-199 787,-199 787,-205 781,-211 775,-211"/>
<text text-anchor="middle" x="691.5" y="-199" font-family="Arial" font-size="10.00">MLCC / polymer tantalum / electrolytic /</text>
<text text-anchor="middle" x="691.5" y="-188" font-family="Arial" font-size="10.00">film / inductors / current&#45;sense</text>
<text text-anchor="middle" x="691.5" y="-177" font-family="Arial" font-size="10.00">(Murata, TDK, Taiyo Yuden,</text>
<text text-anchor="middle" x="691.5" y="-166" font-family="Arial" font-size="10.00">Yageo, Walsin, Samsung EM,</text>
<text text-anchor="middle" x="691.5" y="-155" font-family="Arial" font-size="10.00">Kyocera, Panasonic, Nichicon,</text>
<text text-anchor="middle" x="691.5" y="-144" font-family="Arial" font-size="10.00">Nippon Chemi&#45;Con, Vishay,</text>
<text text-anchor="middle" x="691.5" y="-133" font-family="Arial" font-size="10.00">CTS, TT Electronics, Sumida, ROHM,</text>
<text text-anchor="middle" x="691.5" y="-122" font-family="Arial" font-size="10.00">Samwha)</text>
</g>
<!-- vrm&#45;&gt;passives -->
<g id="edge5" class="edge">
<title>vrm&#45;&gt;passives</title>
<path fill="none" stroke="#6c757d" stroke-width="1.2" d="M877.31,-266.74C849.94,-258.55 825,-250 825,-250 825,-250 795.66,-233.61 764.59,-214.91"/>
<polygon fill="#6c757d" stroke="#6c757d" stroke-width="1.2" points="765.62,-212.67 758.36,-211.14 763.08,-216.86 765.62,-212.67"/>
</g>
<!-- net -->
<g id="node10" class="node">
<title>net</title>
<path fill="#f4f6f8" stroke="#4472c4" d="M1244,-264C1244,-264 1119,-264 1119,-264 1113,-264 1107,-258 1107,-252 1107,-252 1107,-224 1107,-224 1107,-218 1113,-212 1119,-212 1119,-212 1244,-212 1244,-212 1250,-212 1256,-218 1256,-224 1256,-224 1256,-252 1256,-252 1256,-258 1250,-264 1244,-264"/>
<text text-anchor="middle" x="1181.5" y="-252" font-family="Arial" font-size="10.00">Switch / NIC / optical / fabrics</text>
<text text-anchor="middle" x="1181.5" y="-241" font-family="Arial" font-size="10.00">(ANET, AVGO, MRVL, ALAB,</text>
<text text-anchor="middle" x="1181.5" y="-230" font-family="Arial" font-size="10.00">COHR, LITE, FN, CIEN,</text>
<text text-anchor="middle" x="1181.5" y="-219" font-family="Arial" font-size="10.00">NVIDIA, AMD, MU)</text>
</g>
<!-- vrm&#45;&gt;net -->
<g id="edge16" class="edge">
<title>vrm&#45;&gt;net</title>
<path fill="none" stroke="#6c757d" stroke-width="1.2" d="M1019.75,-266.53C1045.09,-262.03 1073.89,-256.92 1100.04,-252.28"/>
<polygon fill="#6c757d" stroke="#6c757d" stroke-width="1.2" points="1100.52,-254.68 1106.98,-251.05 1099.66,-249.86 1100.52,-254.68"/>
</g>
<!-- passives&#45;&gt;rackpower -->
<g id="edge14" class="edge">
<title>passives&#45;&gt;rackpower</title>
<path fill="none" stroke="#6c757d" stroke-width="1.2" d="M691.5,-211.03C691.5,-222.47 691.5,-240.33 691.5,-240.33 691.5,-240.33 691.5,-245.07 691.5,-251.23"/>
<polygon fill="#6c757d" stroke="#6c757d" stroke-width="1.2" points="689.05,-251.31 691.5,-258.31 693.95,-251.31 689.05,-251.31"/>
</g>
<!-- passives&#45;&gt;vrm -->
<g id="edge15" class="edge">
<title>passives&#45;&gt;vrm</title>
<path fill="none" stroke="#6c757d" stroke-width="1.2" d="M787.03,-204.32C808.44,-215.75 825,-225 825,-225 825,-225 870.92,-240.75 906.53,-255.71"/>
<polygon fill="#6c757d" stroke="#6c757d" stroke-width="1.2" points="905.65,-258 913.05,-258.49 907.57,-253.49 905.65,-258"/>
</g>
<!-- boards -->
<g id="node8" class="node">
<title>boards</title>
<path fill="#f4f6f8" stroke="#4472c4" d="M1014,-200C1014,-200 883,-200 883,-200 877,-200 871,-194 871,-188 871,-188 871,-160 871,-160 871,-154 877,-148 883,-148 883,-148 1014,-148 1014,-148 1020,-148 1026,-154 1026,-160 1026,-160 1026,-188 1026,-188 1026,-194 1020,-200 1014,-200"/>
<text text-anchor="middle" x="948.5" y="-188" font-family="Arial" font-size="10.00">PCBs / substrates / connectors</text>
<text text-anchor="middle" x="948.5" y="-177" font-family="Arial" font-size="10.00">(TTMI, Unimicron, Zhen Ding,</text>
<text text-anchor="middle" x="948.5" y="-166" font-family="Arial" font-size="10.00">Compeq, Tripod, Ibiden,</text>
<text text-anchor="middle" x="948.5" y="-155" font-family="Arial" font-size="10.00">APH, TEL, ASE)</text>
</g>
<!-- passives&#45;&gt;boards -->
<g id="edge6" class="edge">
<title>passives&#45;&gt;boards</title>
<path fill="none" stroke="#6c757d" stroke-width="1.2" d="M787.09,-167.08C812.25,-168.17 839.24,-169.33 863.77,-170.39"/>
<polygon fill="#6c757d" stroke="#6c757d" stroke-width="1.2" points="863.86,-172.84 870.96,-170.7 864.07,-167.95 863.86,-172.84"/>
</g>
<!-- boards&#45;&gt;odm -->
<g id="edge7" class="edge">
<title>boards&#45;&gt;odm</title>
<path fill="none" stroke="#6c757d" stroke-width="1.2" d="M1026.05,-180.49C1116.84,-188.19 1256,-200 1256,-200 1256,-200 1271.69,-204.77 1291.94,-210.93"/>
<polygon fill="#6c757d" stroke="#6c757d" stroke-width="1.2" points="1291.26,-213.28 1298.67,-212.97 1292.68,-208.59 1291.26,-213.28"/>
</g>
<!-- boards&#45;&gt;net -->
<g id="edge13" class="edge">
<title>boards&#45;&gt;net</title>
<path fill="none" stroke="#6c757d" stroke-width="1.2" d="M1026.1,-195.22C1049.77,-201.78 1075.9,-209.02 1099.83,-215.65"/>
<polygon fill="#6c757d" stroke="#6c757d" stroke-width="1.2" points="1099.45,-218.09 1106.85,-217.6 1100.76,-213.37 1099.45,-218.09"/>
</g>
<!-- hypers -->
<g id="node11" class="node">
<title>hypers</title>
<path fill="#f4f6f8" stroke="#4472c4" d="M1629,-264C1629,-264 1520,-264 1520,-264 1514,-264 1508,-258 1508,-252 1508,-252 1508,-224 1508,-224 1508,-218 1514,-212 1520,-212 1520,-212 1629,-212 1629,-212 1635,-212 1641,-218 1641,-224 1641,-224 1641,-252 1641,-252 1641,-258 1635,-264 1629,-264"/>
<text text-anchor="middle" x="1574.5" y="-252" font-family="Arial" font-size="10.00">Hyperscalers / AI labs</text>
<text text-anchor="middle" x="1574.5" y="-241" font-family="Arial" font-size="10.00">(Microsoft, AWS, Google,</text>
<text text-anchor="middle" x="1574.5" y="-230" font-family="Arial" font-size="10.00">Meta, Oracle, CoreWeave,</text>
<text text-anchor="middle" x="1574.5" y="-219" font-family="Arial" font-size="10.00">OpenAI, xAI, Anthropic)</text>
</g>
<!-- odm&#45;&gt;hypers -->
<g id="edge8" class="edge">
<title>odm&#45;&gt;hypers</title>
<path fill="none" stroke="#6c757d" stroke-width="1.2" d="M1465.17,-238C1477.01,-238 1489.13,-238 1500.77,-238"/>
<polygon fill="#6c757d" stroke="#6c757d" stroke-width="1.2" points="1500.95,-240.45 1507.95,-238 1500.95,-235.55 1500.95,-240.45"/>
</g>
<!-- net&#45;&gt;odm -->
<g id="edge12" class="edge">
<title>net&#45;&gt;odm</title>
<path fill="none" stroke="#6c757d" stroke-width="1.2" d="M1256.13,-238C1267.64,-238 1279.65,-238 1291.47,-238"/>
<polygon fill="#6c757d" stroke="#6c757d" stroke-width="1.2" points="1291.8,-240.45 1298.8,-238 1291.8,-235.55 1291.8,-240.45"/>
</g>
</g>
</svg>
